<?xml version="1.0" encoding="UTF-8"?>
<svg width="212px" height="48px" viewBox="0 0 212 48" version="1.1" xmlns="http://www.w3.org/2000/svg" xmlns:xlink="http://www.w3.org/1999/xlink">
    <title>logo-inline</title>
    <g id="Symbols" stroke="none" stroke-width="1" fill="none" fill-rule="evenodd">
        <g id="Header/Atoms/Logo/1920" transform="translate(-40.000000, -20.000000)" fill="#000000" fill-rule="nonzero">
            <g id="logo-inline" transform="translate(40.000000, 20.000000)">
                <g id="Group">
                    <path d="M35.7575758,29.6969697 L33.9151515,29.1151515 C32.3393939,34.230303 27.6606061,37.6484848 22.3272727,37.6484848 L22.3272727,39.5878788 C28.5090909,39.5878788 33.9151515,35.6121212 35.7575758,29.6969697 Z" id="Path"></path>
                    <path d="M44.6060606,24.5333333 C44.0969697,12.6787879 34.3030303,3.17575758 22.3030303,3.17575758 C20.9212121,3.17575758 19.5636364,3.2969697 18.230303,3.53939394 L18.230303,0 L16.2909091,0 L16.2909091,4 C6.90909091,6.64242424 0,15.2727273 0,25.5030303 C0,37.8181818 10.0121212,47.830303 22.3272727,47.830303 C34.3030303,47.830303 44.1212121,38.3515152 44.630303,26.4727273 L48.5333333,26.4727273 L48.5333333,24.5333333 L44.6060606,24.5333333 Z M28.7272727,13.2848485 L20.5818182,26.4727273 L42.6666667,26.4727273 C42.1575758,37.2606061 33.2363636,45.8909091 22.3030303,45.8909091 C11.0787879,45.8666667 1.93939394,36.7272727 1.93939394,25.5030303 C1.93939394,16.3636364 8,8.60606061 16.3151515,6.03636364 L16.3151515,15.8787879 C16.3151515,19.0060606 14.2545455,20.8969697 12.3151515,21.6 C10.3757576,22.3030303 7.58787879,22.230303 5.55151515,19.830303 L4.07272727,21.0909091 C5.64848485,22.9333333 7.85454545,23.9272727 10.1575758,23.9272727 C11.1030303,23.9272727 12.0484848,23.7575758 12.969697,23.4181818 C16.169697,22.230303 18.230303,19.2727273 18.230303,15.8787879 L18.230303,5.52727273 C19.5393939,5.26060606 20.8969697,5.11515152 22.3030303,5.11515152 C33.2121212,5.11515152 42.1575758,13.7454545 42.6666667,24.5333333 L24.0484848,24.5333333 L32.1939394,11.3454545 L22.3272727,11.3454545 L22.3272727,13.2848485 L28.7272727,13.2848485 Z" id="Shape"></path>
                    <path d="M14.1575758,28.6060606 C11.9030303,28.6060606 10.0848485,30.4242424 10.0848485,32.6787879 C10.0848485,34.9333333 11.9030303,36.7515152 14.1575758,36.7515152 C16.4121212,36.7515152 18.230303,34.9333333 18.230303,32.6787879 C18.230303,30.4484848 16.4121212,28.6060606 14.1575758,28.6060606 Z M14.1575758,34.8363636 C12.969697,34.8363636 12.0242424,33.8666667 12.0242424,32.7030303 C12.0242424,31.5393939 12.9939394,30.569697 14.1575758,30.569697 C15.3454545,30.569697 16.2909091,31.5393939 16.2909091,32.7030303 C16.2909091,33.8666667 15.3454545,34.8363636 14.1575758,34.8363636 Z" id="Shape"></path>
                </g>
                <g id="Group" transform="translate(57.000000, 9.000000)">
                    <path d="M8.50909091,6.61818182 L8.50909091,17.8424242 C8.50909091,19.3212121 8.41212121,21.6242424 6.56969697,22.8848485 C5.84242424,23.369697 4.84848485,23.6363636 3.85454545,23.6363636 C2.66666667,23.6363636 1.23636364,23.2484848 0.0484848485,22.0848485 L2.01212121,19.7090909 C2.32727273,20.1939394 2.86060606,20.6060606 3.63636364,20.6060606 C4.33939394,20.6060606 4.72727273,20.3151515 4.8969697,20.0242424 C5.28484848,19.4424242 5.26060606,18.3515152 5.26060606,17.3333333 L5.26060606,6.61818182 L8.50909091,6.61818182 Z" id="Path"></path>
                    <path d="M19.1757576,2.25454545 L14.9818182,5.09090909 L13.6242424,3.9030303 L17.0181818,0.557575758 L19.1757576,2.25454545 Z M17.0181818,6.61818182 L17.0181818,23.2484848 L13.769697,23.2484848 L13.769697,6.61818182 L17.0181818,6.61818182 Z" id="Shape"></path>
                    <polygon id="Path" points="24.2909091 6.61818182 26.6424242 6.61818182 31.0545455 17.1878788 35.6606061 6.61818182 38.0121212 6.61818182 40.8 23.2484848 37.5030303 23.2484848 36 12.9939394 31.5393939 23.2484848 30.4484848 23.2484848 26.1818182 12.9939394 24.4848485 23.2484848 21.1878788 23.2484848"></polygon>
                    <polygon id="Path" points="53.4060606 9.40606061 47.4181818 9.40606061 47.4181818 13.1151515 53.1636364 13.1151515 53.1636364 15.9030303 47.4181818 15.9030303 47.4181818 20.4363636 53.4060606 20.4363636 53.4060606 23.2242424 44.169697 23.2242424 44.169697 6.61818182 53.4060606 6.61818182"></polygon>
                    <g transform="translate(64.969697, 0.000000)">
                        <polygon id="Path" points="5.40606061 20.4363636 13.0909091 20.4363636 13.0909091 23.2242424 0 23.2242424 8.07272727 9.38181818 1.26060606 9.38181818 1.26060606 6.61818182 13.4545455 6.61818182"></polygon>
                        <path d="M21.0666667,6.61818182 C23.3939394,6.61818182 25.4060606,6.86060606 27.2484848,8.24242424 C29.2606061,9.76969697 30.4484848,12.169697 30.4484848,14.9575758 C30.4484848,17.7454545 29.3090909,20.1212121 27.1030303,21.6727273 C25.1636364,23.0545455 23.3454545,23.2727273 21.0181818,23.2727273 L16.7272727,23.2727273 L16.7272727,6.61818182 L21.0666667,6.61818182 Z M19.9515152,20.4363636 L20.9454545,20.4363636 C21.769697,20.4363636 23.5636364,20.3878788 25.0181818,19.3454545 C26.3515152,18.4 27.0787879,16.7030303 27.0787879,14.9333333 C27.0787879,13.1878788 26.3515152,11.4909091 25.0424242,10.4969697 C23.6848485,9.5030303 22.0606061,9.40606061 20.9454545,9.40606061 L19.9515152,9.40606061 L19.9515152,20.4363636 Z" id="Shape"></path>
                        <path d="M38.2060606,6.61818182 C40.5090909,6.61818182 41.6727273,7.22424242 42.4484848,7.85454545 C43.7090909,8.92121212 44.0969697,10.3515152 44.0969697,11.5878788 C44.0969697,13.2121212 43.4424242,14.6181818 42.1575758,15.4909091 C41.7454545,15.7818182 41.1393939,16.0727273 40.3393939,16.2181818 L45.5272727,23.2242424 L41.4787879,23.2242424 L37.0424242,16.5333333 L36.6545455,16.5333333 L36.6545455,23.2242424 L33.4060606,23.2242424 L33.4060606,6.61818182 L38.2060606,6.61818182 Z M36.630303,14.2545455 L37.5515152,14.2545455 C38.1818182,14.2545455 40.7515152,14.1818182 40.7515152,11.7333333 C40.7515152,9.26060606 38.2060606,9.23636364 37.6,9.23636364 L36.630303,9.23636364 L36.630303,14.2545455 Z" id="Shape"></path>
                        <path d="M58.4242424,19.7575758 L51.7090909,19.7575758 L50.230303,23.2484848 L46.7151515,23.2484848 L53.8666667,6.61818182 L56.4121212,6.61818182 L63.369697,23.2484848 L59.8787879,23.2484848 L58.4242424,19.7575758 Z M57.4787879,17.1151515 L55.1030303,11.1272727 L52.7272727,17.1151515 L57.4787879,17.1151515 Z" id="Shape"></path>
                        <polygon id="Path" points="65.4545455 6.61818182 69.8909091 17.7939394 74.3272727 6.61818182 77.8666667 6.61818182 70.8363636 23.2484848 68.8969697 23.2484848 61.9151515 6.61818182"></polygon>
                        <path d="M89.5757576,9.40606061 L83.5878788,9.40606061 L83.5878788,13.1151515 L89.3333333,13.1151515 L89.3333333,15.9030303 L83.5878788,15.9030303 L83.5878788,20.4363636 L89.5757576,20.4363636 L89.5757576,23.2242424 L80.3393939,23.2242424 L80.3393939,6.61818182 L89.5757576,6.61818182 L89.5757576,9.40606061 Z M87.9272727,0.0484848485 L89.430303,1.64848485 L84.9454545,4.99393939 L80.4606061,1.64848485 L81.9636364,0.0484848485 L84.9454545,2.25454545 L87.9272727,0.0484848485 Z" id="Shape"></path>
                    </g>
                </g>
            </g>
        </g>
    </g>
</svg>